<svg xmlns="http://www.w3.org/2000/svg" width="24" height="24" viewBox="0 0 24 24"><rect width="24" height="24" fill="#fff" opacity="0"/><g transform="translate(10360 2284)"><g transform="translate(-10739 -2632)"><g transform="translate(96 -414)"><path d="M13.5,355.083,3,359.819V370.58l10.42,4.5L23,370.612V359.819Zm8.5,14.8-8.54,4.228L4,369.935v-9.567l9.5-4.228,8.5,4.228Z" transform="translate(282 408.917)" fill="#f6a16a"/><path d="M19.548,14h0l-5.433-2.5V10.344L20,13.049l-.452.95ZM.474,14h0L0,13.049l6.915-2.87v1.133L.475,14Zm10.56-5.459H10.006V0h1.028V8.539Z" transform="translate(284.999 765)" fill="#f6a16a" stroke="rgba(0,0,0,0)" stroke-miterlimit="10" stroke-width="1" opacity="0.45"/></g><rect width="2" height="2" transform="translate(386 363)" fill="#6489fa"/><rect width="2" height="2" transform="translate(389 363)" fill="#6489fa"/><rect width="2" height="2" transform="translate(390 366)" fill="#6489fa"/><rect width="2" height="2" transform="translate(396 356)" fill="#6489fa"/><rect width="2" height="2" transform="translate(393 363)" fill="#6489fa"/><rect width="2" height="2" transform="translate(389 360)" fill="#6489fa"/><rect width="2" height="2" transform="translate(392 360)" fill="#6489fa"/><rect width="2" height="2" transform="translate(393 353)" fill="#6489fa"/><rect width="2" height="2" transform="translate(388 355)" fill="#6489fa"/><rect width="2" height="2" transform="translate(393 357)" fill="#6489fa"/></g></g></svg>